<svg width="467" height="70" viewBox="0 0 467 70" fill="none" xmlns="http://www.w3.org/2000/svg">
<path d="M7.32 55V12.544H23.119C26.2097 12.544 29.0563 13.3167 31.659 14.862C34.3023 16.4073 36.3967 18.5017 37.942 21.145C39.4873 23.7477 40.26 26.5943 40.26 29.685V37.859C40.26 40.9497 39.4873 43.8167 37.942 46.46C36.3967 49.0627 34.3023 51.1367 31.659 52.682C29.0563 54.2273 26.2097 55 23.119 55H7.32ZM53.0843 12.544H82.9743V14.801H55.3413V32.003H79.3753V34.26H55.3413V52.743H82.9743V55H53.0843V12.544ZM96.5916 12.544L112.818 52.011L129.044 12.544H131.423L113.977 55H111.598L94.1516 12.544H96.5916ZM175.54 38.957C175.581 44.2843 174.056 48.4527 170.965 51.462C167.874 54.4307 163.625 55.915 158.216 55.915C155.003 55.915 152.035 55.183 149.31 53.719C146.626 52.255 144.491 50.181 142.905 47.497C141.319 44.813 140.526 41.7223 140.526 38.225V29.319C140.526 25.8623 141.278 22.792 142.783 20.108C144.328 17.424 146.423 15.35 149.066 13.886C151.75 12.3813 154.739 11.629 158.033 11.629C163.442 11.629 167.671 13.1133 170.721 16.082C173.812 19.01 175.377 23.158 175.418 28.526H164.438C164.397 26.452 163.828 24.8457 162.73 23.707C161.673 22.5683 160.107 21.999 158.033 21.999C156.162 21.999 154.617 22.5887 153.397 23.768C152.177 24.9473 151.567 26.6147 151.567 28.77V38.713C151.567 40.8683 152.197 42.556 153.458 43.776C154.759 44.9553 156.345 45.545 158.216 45.545C162.486 45.545 164.621 43.349 164.621 38.957H175.54ZM203.187 11.629C206.359 11.629 209.287 12.422 211.971 14.008C214.655 15.5533 216.77 17.668 218.315 20.352C219.901 23.036 220.694 25.964 220.694 29.136V38.408C220.694 41.58 219.901 44.508 218.315 47.192C216.77 49.876 214.655 52.011 211.971 53.597C209.287 55.1423 206.359 55.915 203.187 55.915C200.015 55.915 197.087 55.1423 194.403 53.597C191.719 52.011 189.584 49.876 187.998 47.192C186.453 44.508 185.68 41.58 185.68 38.408V29.136C185.68 25.964 186.453 23.036 187.998 20.352C189.584 17.668 191.719 15.5533 194.403 14.008C197.087 12.422 200.015 11.629 203.187 11.629ZM187.937 38.408C187.937 41.1733 188.608 43.7353 189.95 46.094C191.333 48.412 193.183 50.2623 195.501 51.645C197.86 52.987 200.422 53.658 203.187 53.658C205.953 53.658 208.494 52.987 210.812 51.645C213.171 50.2623 215.021 48.412 216.363 46.094C217.746 43.7353 218.437 41.1733 218.437 38.408V29.136C218.437 26.3707 217.746 23.829 216.363 21.511C215.021 19.1523 213.171 17.302 210.812 15.96C208.494 14.5773 205.953 13.886 203.187 13.886C200.422 13.886 197.86 14.5773 195.501 15.96C193.183 17.302 191.333 19.1523 189.95 21.511C188.608 23.829 187.937 26.3707 187.937 29.136V38.408ZM231.749 55V12.544H234.128L263.774 41.336V12.544H266.031V55H263.774V44.508L234.006 15.472V55H231.749ZM276.904 55V12.544H279.283L308.929 41.336V12.544H311.186V55H308.929V44.508L279.161 15.472V55H276.904ZM324.01 12.544H353.9V14.801H326.267V32.003H350.301V34.26H326.267V52.743H353.9V55H324.01V12.544ZM369.225 38.774C369.225 41.458 369.896 43.9387 371.238 46.216C372.621 48.4933 374.451 50.303 376.728 51.645C379.046 52.987 381.547 53.658 384.231 53.658C386.997 53.658 389.498 53.109 391.734 52.011C393.971 50.913 395.72 49.388 396.98 47.436C398.282 45.484 398.953 43.288 398.993 40.848H401.189C401.189 43.654 400.437 46.216 398.932 48.534C397.468 50.8113 395.435 52.621 392.832 53.963C390.27 55.2643 387.403 55.915 384.231 55.915C381.141 55.915 378.274 55.1423 375.63 53.597C372.987 52.0517 370.893 49.9777 369.347 47.375C367.802 44.7317 367.029 41.8647 367.029 38.774V28.77C367.029 25.6793 367.782 22.8327 369.286 20.23C370.832 17.5867 372.906 15.4923 375.508 13.947C378.152 12.4017 381.019 11.629 384.109 11.629C387.241 11.629 390.087 12.3 392.649 13.642C395.252 14.9433 397.306 16.753 398.81 19.071C400.315 21.3483 401.067 23.89 401.067 26.696H398.871C398.831 24.256 398.16 22.06 396.858 20.108C395.557 18.156 393.788 16.631 391.551 15.533C389.355 14.435 386.875 13.886 384.109 13.886C381.425 13.886 378.945 14.557 376.667 15.899C374.39 17.241 372.58 19.0507 371.238 21.328C369.896 23.6053 369.225 26.086 369.225 28.77V38.774ZM446.1 12.544V14.801H430.057V55H427.861V14.801H411.818V12.544H446.1Z" fill="black"/>
</svg>
